<svg width="100" height="100" xmlns="http://www.w3.org/2000/svg">
 <!-- Created with Method Draw - http://github.com/duopixel/Method-Draw/ -->
 <g>
  <title>background</title>
  <rect fill="#bb010c" id="canvas_background" height="102" width="102" y="-1" x="-1"/>
  <g display="none" overflow="visible" y="0" x="0" height="100%" width="100%" id="canvasGrid">
   <rect fill="url(#gridpattern)" stroke-width="0" y="0" x="0" height="100%" width="100%"/>
  </g>
 </g>
 <g>
  <title>Layer 1</title>
  <path stroke="#000" id="svg_2" d="m50.92984,12.364827c-14.08326,0 -25.500011,10.745177 -25.500011,23.999991c0,13.254818 11.416752,24.000011 25.500011,24.000011c14.083542,0 25.499992,-10.745193 25.499992,-24.000011c0,-13.254814 -11.416451,-23.999991 -25.499992,-23.999991zm0,43.044433c-11.160122,0 -20.236378,-8.543671 -20.236378,-19.044441c0,-10.502071 9.076256,-19.046314 20.236378,-19.046314c11.160309,0 20.235008,8.542362 20.235008,19.046314c0,10.503929 -9.078003,19.044441 -20.235008,19.044441zm-0.001663,-37.002258c-0.970173,0 -1.752563,0.739511 -1.752563,1.651031l0,15.2271l-10.607964,4.365959c-0.887749,0.366676 -1.291401,1.340481 -0.901825,2.176399c0.28775,0.619171 0.929951,0.988953 1.605263,0.988953c0.235271,0 0.47554,-0.044724 0.703773,-0.140442l11.625237,-4.785511c0.008713,-0.003155 0.015736,-0.006287 0.022739,-0.010094l0.007061,-0.003128c0.026424,-0.009476 0.040482,-0.03278 0.06493,-0.040977c0.182674,-0.086285 0.352707,-0.187069 0.48959,-0.321857c0.05954,-0.056675 0.093002,-0.129147 0.138519,-0.193394c0.084324,-0.10585 0.177391,-0.209736 0.228241,-0.336964c0.042168,-0.098972 0.045494,-0.206699 0.066586,-0.311855c0.022758,-0.107731 0.066593,-0.201569 0.066593,-0.309238l0,-16.306204c0,-0.910267 -0.785782,-1.649778 -1.75618,-1.649778z" stroke-opacity="null" stroke-width="1.5" fill="#ffffff"/>
 </g>
</svg>