<?xml version="1.0" encoding="UTF-8"?>
<svg width="14px" height="15px" viewBox="0 0 14 15" version="1.1" xmlns="http://www.w3.org/2000/svg" xmlns:xlink="http://www.w3.org/1999/xlink">
    <!-- Generator: Sketch 54.1 (76490) - https://sketchapp.com -->
    <title>arrowsalt</title>
    <desc>Created with Sketch.</desc>
    <g id="0822" stroke="none" stroke-width="1" fill="none" fill-rule="evenodd" opacity="1">
        <g id="单位任务视图02" transform="translate(-1192.000000, -202.000000)" fill="#FFFFFF" fill-rule="nonzero">
            <g id="编组-12" transform="translate(320.000000, 186.000000)">
                <g id="Group-3">
                    <g id="Group">
                        <g id="Group-5" transform="translate(0.000000, 12.000000)">
                            <g id="Group-73" transform="translate(871.000000, 3.000000)">
                                <g id="arrowsalt" transform="translate(1.000000, 1.000000)">
                                    <path d="M5.7171875,12.6375 L2.4171875,12.6375 L6.04375,9.0109375 C6.3125,8.7421875 6.3125,8.3078125 6.04375,8.0390625 C5.775,7.7703125 5.340625,7.7703125 5.071875,8.0390625 L1.3875,11.721875 L1.3875,8.45 C1.3875,8.0703125 1.0796875,7.7625 0.7,7.7625 C0.3203125,7.7625 0.0125,8.0703125 0.0125,8.45 L0.0125,13.325 C0.0125,13.7046875 0.3203125,14.0125 0.7,14.0125 L5.715625,14.0125 C6.0953125,14.0125 6.403125,13.7046875 6.403125,13.325 C6.403125,12.9453125 6.096875,12.6375 5.7171875,12.6375 Z M13.3109375,0.0125 L8.2953125,0.0125 C7.915625,0.0125 7.6078125,0.3203125 7.6078125,0.7 C7.6078125,1.0796875 7.915625,1.3875 8.2953125,1.3875 L11.59375,1.3875 L7.9671875,5.0125 C7.6984375,5.28125 7.6984375,5.715625 7.9671875,5.984375 C8.1015625,6.11875 8.278125,6.1859375 8.453125,6.1859375 C8.6296875,6.1859375 8.8046875,6.11875 8.9390625,5.984375 L12.621875,2.3015625 L12.621875,5.5734375 C12.621875,5.953125 12.9296875,6.2609375 13.309375,6.2609375 C13.6890625,6.2609375 13.996875,5.953125 13.996875,5.5734375 L13.996875,0.6984375 C13.9984375,0.3203125 13.690625,0.0125 13.3109375,0.0125 Z" id="Shape"></path>
                                </g>
                            </g>
                        </g>
                    </g>
                </g>
            </g>
        </g>
    </g>
</svg>