<?xml version="1.0" encoding="UTF-8"?>
<svg width="19px" height="17px" viewBox="0 0 19 17" version="1.1" xmlns="http://www.w3.org/2000/svg" xmlns:xlink="http://www.w3.org/1999/xlink">
    <!-- Generator: Sketch 54.1 (76490) - https://sketchapp.com -->
    <title>Shape</title>
    <desc>Created with Sketch.</desc>
    <defs>
        <path d="M16.64375,6.81259836 C15.303125,5.47197336 13.521875,4.73603586 11.628125,4.73603586 L3.771875,4.73603586 L6.4296875,2.07822336 C6.7953125,1.71259836 6.7953125,1.11962961 6.4296875,0.751660858 C6.0640625,0.383692108 5.47109375,0.386035858 5.103125,0.751660858 L0.79765625,5.05947336 C0.621875,5.23525461 0.5234375,5.47431711 0.5234375,5.72275461 C0.5234375,5.97119211 0.621875,6.21025461 0.79765625,6.38603586 L4.98125,10.5696296 C5.1640625,10.7524421 5.403125,10.8438484 5.64453125,10.8438484 C5.8859375,10.8438484 6.125,10.7524421 6.3078125,10.5696296 C6.6734375,10.2040046 6.6734375,9.61103586 6.3078125,9.24306711 L3.6734375,6.61103586 L11.628125,6.61103586 C13.0226562,6.61103586 14.3328125,7.15478586 15.3171875,8.13916086 C16.3039062,9.12587961 16.8453125,10.4360359 16.8453125,11.8282234 L16.8453125,16.3282234 C16.8453125,16.8461921 17.2648437,17.2657234 17.7828125,17.2657234 C18.3007812,17.2657234 18.7203125,16.8461921 18.7203125,16.3282234 L18.7203125,11.8282234 C18.7226562,9.93447336 17.984375,8.15322336 16.64375,6.81259836 Z" id="path-1"></path>
    </defs>
    <g id="组件" stroke="none" stroke-width="1" fill="none" fill-rule="evenodd">
        <g id="Button/_Resources/Icon/Delete复制-7" transform="translate(-3.000000, -4.000000)">
            <g id="delete" transform="translate(2.476562, 3.523438)">
                <mask id="mask-2" fill="white">
                    <use xlink:href="#path-1"></use>
                </mask>
                <use id="Shape" fill="#FFFFFF" fill-rule="nonzero" xlink:href="#path-1"></use>
            </g>
        </g>
    </g>
</svg>