<?xml version="1.0" encoding="UTF-8"?>
<svg width="18px" height="18px" viewBox="0 0 18 18" version="1.1" xmlns="http://www.w3.org/2000/svg" xmlns:xlink="http://www.w3.org/1999/xlink">
    <!-- Generator: Sketch 54.1 (76490) - https://sketchapp.com -->
    <title>Group 177</title>
    <desc>Created with Sketch.</desc>
    <g id="Style" stroke="none" stroke-width="1" fill="none" fill-rule="evenodd" opacity="1">
        <g id="UI-icons" transform="translate(-967.000000, -689.000000)">
            <g id="Group-177" transform="translate(964.000000, 686.000000)">
                <rect id="Rectangle-48-Copy-12" x="0" y="0" width="24" height="24"></rect>
                <g id="save" transform="translate(3.000000, 3.000000)" fill="#FFFFFF" fill-rule="nonzero">
                    <path d="M12.2554688,0.02109375 L1.70859375,0.02109375 C0.77578125,0.02109375 0.02109375,0.77578125 0.02109375,1.70859375 L0.02109375,16.3101562 C0.02109375,17.2429687 0.77578125,17.9976562 1.70859375,17.9976562 L16.3101562,17.9976562 C17.2429687,17.9976562 17.9976562,17.2429687 17.9976562,16.3101562 L17.9976562,5.7609375 L12.2554688,0.02109375 Z M4.7296875,1.70859375 L9.815625,1.70859375 L9.815625,6.534375 C9.815625,7.00078125 9.43828125,7.378125 8.971875,7.378125 L5.5734375,7.378125 C5.10703125,7.378125 4.7296875,7.00078125 4.7296875,6.534375 L4.7296875,1.70859375 Z M16.3101562,16.3101562 L1.70859375,16.3101562 L1.70859375,1.70859375 L3.0421875,1.70859375 L3.0421875,6.534375 C3.0421875,7.93125 4.1765625,9.065625 5.5734375,9.065625 L8.971875,9.065625 C10.36875,9.065625 11.503125,7.93125 11.503125,6.534375 L11.503125,1.70859375 L11.5570312,1.70859375 L16.3078125,6.459375 L16.3078125,16.3101562 L16.3101562,16.3101562 Z M8.0109375,5.690625 C8.47734375,5.690625 8.8546875,5.31328125 8.8546875,4.846875 L8.8546875,3.8390625 C8.8546875,3.37265625 8.47734375,2.9953125 8.0109375,2.9953125 C7.54453125,2.9953125 7.1671875,3.37265625 7.1671875,3.8390625 L7.1671875,4.846875 C7.1671875,5.31328125 7.54453125,5.690625 8.0109375,5.690625 Z" id="Shape"></path>
                </g>
            </g>
        </g>
    </g>
</svg>