<svg width="22.000000000000004" height="22.000000000000004" xmlns="http://www.w3.org/2000/svg">
 <!-- Generator: Sketch 54.1 (76490) - https://sketchapp.com -->

 <title>shrink</title>
 <desc>Created with Sketch.</desc>
 <g>
  <title>background</title>
  <rect fill="none" id="canvas_background" height="402" width="582" y="-1" x="-1"/>
 </g>
 <g>
  <title>Layer 1</title>
  <g opacity="1" fill-rule="evenodd" fill="none" id="Style">
   <g fill-rule="nonzero" fill="#000000" id="UI-icons">
    <g id="Group-72">
     <g id="shrink">
      <path fill="#ffffff" id="Shape" d="m1.55,14.182812l4.95,0l-5.43984,5.4375c-0.40313,0.40313 -0.40313,1.05469 0,1.45781c0.40312,0.40313 1.05468,0.40313 1.45781,0l5.52422,-5.52422l0,4.90782c0,0.56953 0.46172,1.03125 1.03125,1.03125c0.56953,0 1.03125,-0.46172 1.03125,-1.03125l0,-7.3125c0,-0.56953 -0.46172,-1.03125 -1.03125,-1.03125l-7.52344,0c-0.56953,0 -1.03125,0.46172 -1.03125,1.03125c0,0.56953 0.46172,1.03359 1.03125,1.03359zm11.39063,-4.3125l7.52343,0c0.56953,0 1.03125,-0.46172 1.03125,-1.03125c0,-0.56953 -0.46172,-1.03125 -1.03125,-1.03125l-4.94765,0l5.43984,-5.43984c0.40313,-0.40313 0.40313,-1.05469 0,-1.45782c-0.20156,-0.20156 -0.46641,-0.30234 -0.72891,-0.30234c-0.26484,0 -0.52734,0.10078 -0.7289,0.30234l-5.52656,5.52422l0,-4.90781c0,-0.56953 -0.46172,-1.03125 -1.03125,-1.03125c-0.56954,0 -1.03125,0.46172 -1.03125,1.03125l0,7.3125c0,0.56953 0.46171,1.03125 1.03125,1.03125z"/>
     </g>
    </g>
   </g>
  </g>
 </g>
</svg>