<svg width="24" height="23" xmlns="http://www.w3.org/2000/svg" xmlns:xlink="http://www.w3.org/1999/xlink">
 <!-- Generator: Sketch 54.1 (76490) - https://sketchapp.com -->
 <title>delete</title>
 <desc>Created with Sketch.</desc>
 <defs>
  <path id="path-1" d="m21.46657,14.02505c-0.57996,0 -1.05393,0.45881 -1.05393,1.02659l0,5.84698c0,0.29536 -0.24435,0.53336 -0.54757,0.53336l-16.69209,0c-0.30323,0 -0.54758,-0.238 -0.54758,-0.53336l0,-16.83551c0,-0.29536 0.24435,-0.53337 0.54758,-0.53337l7.49525,0c0.57995,0 1.05392,-0.45881 1.05392,-1.02659c0,-0.56778 -0.47103,-1.02659 -1.05392,-1.02659l-7.49231,0c-1.46313,0 -2.65248,1.1585 -2.65248,2.58368l0,16.83551c0,1.42231 1.18935,2.58081 2.65248,2.58081l16.69504,0c1.46313,0 2.65248,-1.1585 2.65248,-2.58368l0,-5.84124c-0.00295,-0.56491 -0.47692,-1.02659 -1.05687,-1.02659zm-11.34881,-5.7822c-1.25007,1.92307 -1.55532,3.8136 -1.58439,4.02366c-0.07849,0.57988 0.31688,1.11834 0.88086,1.19822c0.04652,0.00887 0.09885,0.01183 0.14827,0.01183c0.51165,0 0.95354,-0.39053 1.02913,-0.8994c0.00872,-0.07101 0.27327,-1.66864 1.29367,-3.21006c1.34019,-2.02366 3.35484,-3.0562 5.97708,-3.06508c0.0407,0.00296 0.07559,0.00592 0.10466,0.00592c0.57271,0 1.04076,-0.47337 1.04076,-1.05917l0,-1.24556l2.92167,2.8284l-2.92458,2.47928l0,-1.01183c0,-0.58284 -0.46514,-1.05917 -1.04076,-1.05917c-0.5727,0 -1.04075,0.47337 -1.04075,1.05917l0,3.27218c0,0.40828 0.23548,0.78402 0.60177,0.95858c0.13664,0.06805 0.29072,0.10059 0.43898,0.10059c0.2442,0 0.47968,-0.08876 0.66283,-0.2426l5.52648,-4.68342c0.22675,-0.19823 0.36339,-0.47929 0.3692,-0.77811c0.01163,-0.30177 -0.10466,-0.59467 -0.31978,-0.80473l-5.52357,-5.35206c-0.30234,-0.29586 -0.74423,-0.37278 -1.12506,-0.2071c-0.38375,0.16864 -0.62795,0.55029 -0.62795,0.97337l0,2.68934c-3.65427,0.31065 -5.71834,2.34911 -6.80852,4.01775z"/>
 </defs>
 <g>
  <title>background</title>
  <rect fill="none" id="canvas_background" height="402" width="582" y="-1" x="-1"/>
 </g>
 <g>
  <title>Layer 1</title>
  <g fill-rule="evenodd" fill="none" id="组件">
   <g id="Button/_Resources/Icon/Delete复制-2">
    <g id="delete">
     <mask fill="#ffffff" transform="translate(-0.5234379768371582,0.5234379768371582) translate(0,-1) " id="mask-2">
      <use fill="#ffffff" id="svg_1" xlink:href="#path-1"/>
     </mask>
     <use x="-0.523438" y="-0.476562" xlink:href="#path-1" fill-rule="nonzero" fill="#ffffff" id="Shape"/>
     <g fill-opacity="0.65" fill="#000000" mask="url(#mask-2)" id="Button/_Resources/Color/Black">
      <g id="Oval-Copy-4">
       <circle fill="#ffffff" id="svg_2" r="60" cy="12" cx="24.805606"/>
      </g>
     </g>
    </g>
   </g>
  </g>
 </g>
</svg>