<?xml version="1.0" encoding="UTF-8"?>
<svg width="24px" height="23px" viewBox="0 0 24 23" version="1.1" xmlns="http://www.w3.org/2000/svg" xmlns:xlink="http://www.w3.org/1999/xlink">
    <!-- Generator: Sketch 54.1 (76490) - https://sketchapp.com -->
    <title>delete</title>
    <desc>Created with Sketch.</desc>
    <defs>
        <path d="M21.4665661,14.0250505 C20.8866116,14.0250505 20.4126386,14.4838618 20.4126386,15.0516407 L20.4126386,20.8986167 C20.4126386,21.1939765 20.1682923,21.4319848 19.8650674,21.4319848 L3.17297584,21.4319848 C2.86975089,21.4319848 2.62540458,21.1939765 2.62540458,20.8986167 L2.62540458,4.06311099 C2.62540458,3.76775124 2.86975089,3.5297429 3.17297584,3.5297429 L10.6682254,3.5297429 C11.2481799,3.5297429 11.7221529,3.07093163 11.7221529,2.5031527 C11.7221529,1.93537376 11.2511238,1.4765625 10.6682254,1.4765625 L3.17591977,1.4765625 C1.71278582,1.4765625 0.5234375,2.63506094 0.5234375,4.06024342 L0.5234375,20.8957492 C0.5234375,22.3180641 1.71278582,23.4765625 3.17591977,23.4765625 L19.8709552,23.4765625 C21.3340892,23.4765625 22.5234375,22.3180641 22.5234375,20.8928816 L22.5234375,15.0516407 C22.5204936,14.4867293 22.0465206,14.0250505 21.4665661,14.0250505 Z M10.1177612,8.24284621 C8.8676908,10.1659189 8.56244106,12.0564473 8.53336966,12.266506 C8.45487687,12.8463864 8.85024796,13.3848467 9.4142332,13.4647282 C9.46074745,13.4736039 9.51307597,13.4765625 9.56249736,13.4765625 C10.0741541,13.4765625 10.5160394,13.0860308 10.5916251,12.5771562 C10.6003465,12.5061504 10.8648963,10.9085208 11.8853025,9.36710409 C13.2254943,7.3434399 15.2401426,6.3108978 17.8623832,6.30202208 C17.9030832,6.30498065 17.9379689,6.30793922 17.9670403,6.30793922 C18.5397469,6.30793922 19.0077965,5.83456748 19.0077965,5.24876996 L19.0077965,4.00321057 L21.9294726,6.83160671 L19.0048894,9.31089119 L19.0048894,8.2990591 C19.0048894,7.71622015 18.5397469,7.23988984 17.9641331,7.23988984 C17.3914265,7.23988984 16.9233769,7.71326157 16.9233769,8.2990591 L16.9233769,11.5712412 C16.9233769,11.9795244 17.1588552,12.3552632 17.5251549,12.529819 C17.6617905,12.5978662 17.815869,12.6304105 17.9641331,12.6304105 C18.2083329,12.6304105 18.4438113,12.5416533 18.6269611,12.3878075 L24.1534351,7.70438585 C24.380192,7.50616144 24.5168276,7.22509697 24.5226419,6.92628106 C24.5342705,6.62450657 24.4179848,6.33160781 24.2028564,6.1215491 L18.6792897,0.769489874 C18.3769471,0.473632537 17.9350617,0.396709629 17.5542263,0.562389738 C17.1704838,0.73102842 16.926284,1.11268438 16.926284,1.53576038 L16.926284,4.22510357 C13.2720085,4.53575377 11.2079388,6.57421083 10.1177612,8.24284621 Z" id="path-1"></path>
    </defs>
    <g id="组件" stroke="none" stroke-width="1" fill="none" fill-rule="evenodd">
        <g id="Button/_Resources/Icon/Delete复制-2" transform="translate(0.000000, -1.000000)">
            <g id="delete" transform="translate(-0.523438, 0.523438)">
                <mask id="mask-2" fill="white">
                    <use xlink:href="#path-1"></use>
                </mask>
                <use id="Shape" fill="#000000" fill-rule="nonzero" xlink:href="#path-1"></use>
                <g id="Button/_Resources/Color/Black" mask="url(#mask-2)" fill="#000000" fill-opacity="0.65">
                    <g transform="translate(-34.670954, -47.523438)" id="Oval-Copy-4">
                        <circle cx="60" cy="60" r="60"></circle>
                    </g>
                </g>
            </g>
        </g>
    </g>
</svg>